<svg xmlns="http://www.w3.org/2000/svg" xmlns:xlink="http://www.w3.org/1999/xlink" width="50" zoomAndPan="magnify" viewBox="0 0 37.5 37.499999" height="50" preserveAspectRatio="xMidYMid meet" version="1.0"><defs><g/><clipPath id="id1"><path d="M 11.25 19 L 26.25 19 L 26.25 29 L 11.25 29 Z M 11.25 19 " clip-rule="nonzero"/></clipPath><clipPath id="id2"><path d="M 11.25 28 L 26.25 28 L 26.25 30 L 11.25 30 Z M 11.25 28 " clip-rule="nonzero"/></clipPath><clipPath id="id3"><path d="M 16 31 L 22 31 L 22 32.25 L 16 32.25 Z M 16 31 " clip-rule="nonzero"/></clipPath><clipPath id="id4"><path d="M 11.25 18.75 L 26.25 18.75 L 26.25 20 L 11.25 20 Z M 11.25 18.75 " clip-rule="nonzero"/></clipPath><clipPath id="id5"><path d="M 24 19 L 26.25 19 L 26.25 29 L 24 29 Z M 24 19 " clip-rule="nonzero"/></clipPath><clipPath id="id6"><path d="M 11.25 19 L 13 19 L 13 29 L 11.25 29 Z M 11.25 19 " clip-rule="nonzero"/></clipPath><clipPath id="id7"><path d="M 11.25 20 L 13 20 L 13 22 L 11.25 22 Z M 11.25 20 " clip-rule="nonzero"/></clipPath><clipPath id="id8"><path d="M 11.25 21 L 13 21 L 13 23 L 11.25 23 Z M 11.25 21 " clip-rule="nonzero"/></clipPath><clipPath id="id9"><path d="M 11.25 23 L 13 23 L 13 24 L 11.25 24 Z M 11.25 23 " clip-rule="nonzero"/></clipPath><clipPath id="id10"><path d="M 11.25 24 L 13 24 L 13 25 L 11.25 25 Z M 11.25 24 " clip-rule="nonzero"/></clipPath></defs><g clip-path="url(#id1)"><path fill="#3040bc" d="M 11.25 19.792969 L 26.25 19.792969 L 26.25 28.269531 L 11.25 28.269531 Z M 11.25 19.792969 " fill-opacity="1" fill-rule="nonzero"/></g><g clip-path="url(#id2)"><path fill="#a7a9ac" d="M 26.25 28.269531 L 26.25 28.996094 C 26.25 29.53125 25.792969 29.964844 25.234375 29.964844 L 12.265625 29.964844 C 11.707031 29.964844 11.25 29.53125 11.25 28.996094 L 11.25 28.269531 Z M 26.25 28.269531 " fill-opacity="1" fill-rule="nonzero"/></g><path fill="#a7a9ac" d="M 20.527344 31.554688 L 16.96875 31.554688 L 17.332031 29.964844 L 20.167969 29.964844 Z M 20.527344 31.554688 " fill-opacity="1" fill-rule="nonzero"/><path fill="#808285" d="M 20.320312 30.636719 L 17.179688 30.636719 L 17.332031 29.964844 L 20.167969 29.964844 Z M 20.320312 30.636719 " fill-opacity="1" fill-rule="nonzero"/><g clip-path="url(#id3)"><path fill="#e0e0e0" d="M 16.007812 31.554688 L 21.492188 31.554688 L 21.492188 32.25 L 16.007812 32.25 Z M 16.007812 31.554688 " fill-opacity="1" fill-rule="nonzero"/></g><g clip-path="url(#id4)"><path fill="#a7a9ac" d="M 26.25 19.71875 L 26.25 19.792969 L 11.25 19.792969 L 11.25 19.71875 C 11.25 19.183594 11.707031 18.75 12.265625 18.75 L 25.234375 18.75 C 25.792969 18.75 26.25 19.183594 26.25 19.71875 Z M 26.25 19.71875 " fill-opacity="1" fill-rule="nonzero"/></g><g clip-path="url(#id5)"><path fill="#65afd6" d="M 24.4375 19.792969 L 26.25 19.792969 L 26.25 28.269531 L 24.4375 28.269531 Z M 24.4375 19.792969 " fill-opacity="1" fill-rule="nonzero"/></g><g clip-path="url(#id6)"><path fill="#65afd6" d="M 11.25 19.792969 L 12.5625 19.792969 L 12.5625 28.269531 L 11.25 28.269531 Z M 11.25 19.792969 " fill-opacity="1" fill-rule="nonzero"/></g><path fill="#3040bc" d="M 25.015625 20.398438 L 25.65625 20.398438 L 25.65625 20.769531 L 25.015625 20.769531 Z M 25.015625 20.398438 " fill-opacity="1" fill-rule="nonzero"/><path fill="#3040bc" d="M 25.015625 21.628906 L 25.65625 21.628906 L 25.65625 21.996094 L 25.015625 21.996094 Z M 25.015625 21.628906 " fill-opacity="1" fill-rule="nonzero"/><path fill="#3040bc" d="M 25.015625 22.78125 L 25.65625 22.78125 L 25.65625 23.148438 L 25.015625 23.148438 Z M 25.015625 22.78125 " fill-opacity="1" fill-rule="nonzero"/><path fill="#3040bc" d="M 25.015625 23.917969 L 25.65625 23.917969 L 25.65625 24.289062 L 25.015625 24.289062 Z M 25.015625 23.917969 " fill-opacity="1" fill-rule="nonzero"/><g clip-path="url(#id7)"><path fill="#3040bc" d="M 11.714844 20.660156 L 12.070312 20.660156 L 12.070312 21.03125 L 11.714844 21.03125 Z M 11.714844 20.660156 " fill-opacity="1" fill-rule="nonzero"/></g><g clip-path="url(#id8)"><path fill="#3040bc" d="M 11.714844 21.890625 L 12.070312 21.890625 L 12.070312 22.257812 L 11.714844 22.257812 Z M 11.714844 21.890625 " fill-opacity="1" fill-rule="nonzero"/></g><g clip-path="url(#id9)"><path fill="#3040bc" d="M 11.714844 23.042969 L 12.070312 23.042969 L 12.070312 23.410156 L 11.714844 23.410156 Z M 11.714844 23.042969 " fill-opacity="1" fill-rule="nonzero"/></g><g clip-path="url(#id10)"><path fill="#3040bc" d="M 11.714844 24.179688 L 12.070312 24.179688 L 12.070312 24.550781 L 11.714844 24.550781 Z M 11.714844 24.179688 " fill-opacity="1" fill-rule="nonzero"/></g><path fill="#f9b130" d="M 17.792969 22.871094 L 17.792969 22.933594 L 15.84375 24.082031 L 13.894531 22.933594 L 13.894531 22.871094 L 15.84375 21.753906 Z M 17.792969 22.871094 " fill-opacity="1" fill-rule="nonzero"/><path fill="#3f8fd5" d="M 17.792969 22.933594 L 17.761719 25.105469 L 15.84375 26.191406 L 15.84375 24.082031 Z M 17.792969 22.933594 " fill-opacity="1" fill-rule="nonzero"/><path fill="#d22732" d="M 15.84375 24.082031 L 15.84375 26.191406 L 13.925781 25.105469 L 13.894531 22.933594 Z M 15.84375 24.082031 " fill-opacity="1" fill-rule="nonzero"/><path fill="#3f8fd5" d="M 20.722656 21.082031 L 18.414062 24.871094 L 23.027344 24.871094 Z M 20.722656 21.082031 " fill-opacity="1" fill-rule="nonzero"/><path fill="#d22732" d="M 20.953125 25.171875 C 20.953125 25.429688 20.90625 25.679688 20.808594 25.917969 C 20.707031 26.15625 20.566406 26.367188 20.386719 26.550781 C 20.203125 26.734375 19.992188 26.875 19.753906 26.976562 C 19.515625 27.074219 19.269531 27.125 19.011719 27.125 C 18.753906 27.125 18.503906 27.074219 18.265625 26.976562 C 18.027344 26.875 17.816406 26.734375 17.636719 26.550781 C 17.453125 26.367188 17.3125 26.15625 17.214844 25.917969 C 17.113281 25.679688 17.066406 25.429688 17.066406 25.171875 C 17.066406 24.910156 17.113281 24.664062 17.214844 24.421875 C 17.3125 24.183594 17.453125 23.972656 17.636719 23.789062 C 17.816406 23.605469 18.027344 23.464844 18.265625 23.367188 C 18.503906 23.265625 18.753906 23.21875 19.011719 23.21875 C 19.269531 23.21875 19.515625 23.265625 19.753906 23.367188 C 19.992188 23.464844 20.203125 23.605469 20.386719 23.789062 C 20.566406 23.972656 20.707031 24.183594 20.808594 24.421875 C 20.90625 24.664062 20.953125 24.910156 20.953125 25.171875 Z M 20.953125 25.171875 " fill-opacity="1" fill-rule="nonzero"/><path fill="#bc2030" d="M 20.953125 25.171875 C 20.953125 25.605469 20.824219 25.996094 20.5625 26.34375 C 20.304688 26.691406 19.964844 26.921875 19.550781 27.046875 C 19.136719 27.167969 18.726562 27.152344 18.320312 26.996094 C 17.917969 26.84375 17.597656 26.585938 17.367188 26.21875 C 17.535156 26.28125 17.707031 26.324219 17.886719 26.34375 C 18.0625 26.363281 18.242188 26.363281 18.417969 26.339844 C 18.597656 26.316406 18.769531 26.273438 18.9375 26.210938 C 19.101562 26.144531 19.261719 26.0625 19.40625 25.957031 C 19.554688 25.855469 19.6875 25.738281 19.804688 25.601562 C 19.925781 25.464844 20.023438 25.320312 20.109375 25.160156 C 20.191406 25 20.253906 24.832031 20.296875 24.65625 C 20.339844 24.484375 20.359375 24.304688 20.359375 24.125 C 20.359375 23.992188 20.347656 23.863281 20.328125 23.730469 C 20.746094 24.117188 20.957031 24.597656 20.953125 25.171875 Z M 20.953125 25.171875 " fill-opacity="1" fill-rule="nonzero"/><g fill="#ff00ff" fill-opacity="1"><g transform="translate(3.84901, 7.758341)"><g><path d="M 0.546875 0 L 0.546875 -4.6875 L 1.59375 -4.6875 L 1.578125 -2.828125 L 3.125 -2.828125 L 3.109375 -4.6875 L 4.15625 -4.6875 L 4.15625 0 L 3.109375 0 L 3.125 -1.9375 L 1.578125 -1.9375 L 1.59375 0 Z M 0.546875 0 "/></g></g></g><g fill="#ff00ff" fill-opacity="1"><g transform="translate(9.609031, 7.758341)"><g><path d="M 0.546875 0 L 0.546875 -4.6875 L 3.375 -4.6875 L 3.375 -3.796875 L 1.59375 -3.8125 L 1.5625 -2.8125 L 3.203125 -2.8125 L 3.203125 -1.9375 L 1.5625 -1.9375 L 1.59375 -0.875 L 3.375 -0.890625 L 3.375 0 Z M 0.546875 0 "/></g></g></g><g fill="#ff00ff" fill-opacity="1"><g transform="translate(14.335712, 7.758341)"><g><path d="M 0.546875 0 L 0.546875 -4.6875 L 1.59375 -4.6875 L 1.5625 -0.90625 L 3.296875 -0.90625 L 3.296875 0 Z M 0.546875 0 "/></g></g></g><g fill="#ff00ff" fill-opacity="1"><g transform="translate(18.609056, 7.758341)"><g><path d="M 0.546875 0 L 0.546875 -4.6875 L 3.375 -4.6875 L 3.375 -3.796875 L 1.59375 -3.8125 L 1.5625 -2.8125 L 3.203125 -2.8125 L 3.203125 -1.9375 L 1.5625 -1.9375 L 1.59375 -0.875 L 3.375 -0.890625 L 3.375 0 Z M 0.546875 0 "/></g></g></g><g fill="#ff00ff" fill-opacity="1"><g transform="translate(23.335736, 7.758341)"><g><path d="M 0.546875 -4.6875 L 1.859375 -4.6875 L 3.3125 -1.359375 L 3.34375 -1.359375 L 3.265625 -4.6875 L 4.234375 -4.6875 L 4.234375 0 L 2.921875 0 L 1.484375 -3.328125 L 1.4375 -3.328125 L 1.515625 0 L 0.546875 0 Z M 0.546875 -4.6875 "/></g></g></g><g fill="#ff00ff" fill-opacity="1"><g transform="translate(29.162421, 7.758341)"><g><path d="M 0.546875 0 L 0.546875 -4.6875 L 3.375 -4.6875 L 3.375 -3.796875 L 1.59375 -3.8125 L 1.5625 -2.8125 L 3.203125 -2.8125 L 3.203125 -1.9375 L 1.5625 -1.9375 L 1.59375 -0.875 L 3.375 -0.890625 L 3.375 0 Z M 0.546875 0 "/></g></g></g><g fill="#00ffff" fill-opacity="1"><g transform="translate(4.660984, 7.945799)"><g><path d="M 0.546875 0 L 0.546875 -4.6875 L 1.59375 -4.6875 L 1.578125 -2.828125 L 3.125 -2.828125 L 3.109375 -4.6875 L 4.15625 -4.6875 L 4.15625 0 L 3.109375 0 L 3.125 -1.9375 L 1.578125 -1.9375 L 1.59375 0 Z M 0.546875 0 "/></g></g></g><g fill="#00ffff" fill-opacity="1"><g transform="translate(10.421005, 7.945799)"><g><path d="M 0.546875 0 L 0.546875 -4.6875 L 3.375 -4.6875 L 3.375 -3.796875 L 1.59375 -3.8125 L 1.5625 -2.8125 L 3.203125 -2.8125 L 3.203125 -1.9375 L 1.5625 -1.9375 L 1.59375 -0.875 L 3.375 -0.890625 L 3.375 0 Z M 0.546875 0 "/></g></g></g><g fill="#00ffff" fill-opacity="1"><g transform="translate(15.147685, 7.945799)"><g><path d="M 0.546875 0 L 0.546875 -4.6875 L 1.59375 -4.6875 L 1.5625 -0.90625 L 3.296875 -0.90625 L 3.296875 0 Z M 0.546875 0 "/></g></g></g><g fill="#00ffff" fill-opacity="1"><g transform="translate(19.421029, 7.945799)"><g><path d="M 0.546875 0 L 0.546875 -4.6875 L 3.375 -4.6875 L 3.375 -3.796875 L 1.59375 -3.8125 L 1.5625 -2.8125 L 3.203125 -2.8125 L 3.203125 -1.9375 L 1.5625 -1.9375 L 1.59375 -0.875 L 3.375 -0.890625 L 3.375 0 Z M 0.546875 0 "/></g></g></g><g fill="#00ffff" fill-opacity="1"><g transform="translate(24.14771, 7.945799)"><g><path d="M 0.546875 -4.6875 L 1.859375 -4.6875 L 3.3125 -1.359375 L 3.34375 -1.359375 L 3.265625 -4.6875 L 4.234375 -4.6875 L 4.234375 0 L 2.921875 0 L 1.484375 -3.328125 L 1.4375 -3.328125 L 1.515625 0 L 0.546875 0 Z M 0.546875 -4.6875 "/></g></g></g><g fill="#00ffff" fill-opacity="1"><g transform="translate(29.974394, 7.945799)"><g><path d="M 0.546875 0 L 0.546875 -4.6875 L 3.375 -4.6875 L 3.375 -3.796875 L 1.59375 -3.8125 L 1.5625 -2.8125 L 3.203125 -2.8125 L 3.203125 -1.9375 L 1.5625 -1.9375 L 1.59375 -0.875 L 3.375 -0.890625 L 3.375 0 Z M 0.546875 0 "/></g></g></g><g fill="#ff1616" fill-opacity="1"><g transform="translate(4.254997, 7.85207)"><g><path d="M 0.546875 0 L 0.546875 -4.6875 L 1.59375 -4.6875 L 1.578125 -2.828125 L 3.125 -2.828125 L 3.109375 -4.6875 L 4.15625 -4.6875 L 4.15625 0 L 3.109375 0 L 3.125 -1.9375 L 1.578125 -1.9375 L 1.59375 0 Z M 0.546875 0 "/></g></g></g><g fill="#ff1616" fill-opacity="1"><g transform="translate(10.015018, 7.85207)"><g><path d="M 0.546875 0 L 0.546875 -4.6875 L 3.375 -4.6875 L 3.375 -3.796875 L 1.59375 -3.8125 L 1.5625 -2.8125 L 3.203125 -2.8125 L 3.203125 -1.9375 L 1.5625 -1.9375 L 1.59375 -0.875 L 3.375 -0.890625 L 3.375 0 Z M 0.546875 0 "/></g></g></g><g fill="#ff1616" fill-opacity="1"><g transform="translate(14.741699, 7.85207)"><g><path d="M 0.546875 0 L 0.546875 -4.6875 L 1.59375 -4.6875 L 1.5625 -0.90625 L 3.296875 -0.90625 L 3.296875 0 Z M 0.546875 0 "/></g></g></g><g fill="#ff1616" fill-opacity="1"><g transform="translate(19.015042, 7.85207)"><g><path d="M 0.546875 0 L 0.546875 -4.6875 L 3.375 -4.6875 L 3.375 -3.796875 L 1.59375 -3.8125 L 1.5625 -2.8125 L 3.203125 -2.8125 L 3.203125 -1.9375 L 1.5625 -1.9375 L 1.59375 -0.875 L 3.375 -0.890625 L 3.375 0 Z M 0.546875 0 "/></g></g></g><g fill="#ff1616" fill-opacity="1"><g transform="translate(23.741723, 7.85207)"><g><path d="M 0.546875 -4.6875 L 1.859375 -4.6875 L 3.3125 -1.359375 L 3.34375 -1.359375 L 3.265625 -4.6875 L 4.234375 -4.6875 L 4.234375 0 L 2.921875 0 L 1.484375 -3.328125 L 1.4375 -3.328125 L 1.515625 0 L 0.546875 0 Z M 0.546875 -4.6875 "/></g></g></g><g fill="#ff1616" fill-opacity="1"><g transform="translate(29.568408, 7.85207)"><g><path d="M 0.546875 0 L 0.546875 -4.6875 L 3.375 -4.6875 L 3.375 -3.796875 L 1.59375 -3.8125 L 1.5625 -2.8125 L 3.203125 -2.8125 L 3.203125 -1.9375 L 1.5625 -1.9375 L 1.59375 -0.875 L 3.375 -0.890625 L 3.375 0 Z M 0.546875 0 "/></g></g></g><g fill="#ff00ff" fill-opacity="1"><g transform="translate(1.800404, 14.424992)"><g><path d="M 1.703125 -3.734375 C 1.515625 -3.554688 1.421875 -3.09375 1.421875 -2.34375 C 1.421875 -1.601562 1.519531 -1.140625 1.71875 -0.953125 C 1.832031 -0.835938 2.019531 -0.78125 2.28125 -0.78125 C 2.550781 -0.78125 2.75 -0.796875 2.875 -0.828125 L 2.875 -1.828125 L 2.1875 -1.875 L 2.1875 -2.640625 L 3.890625 -2.640625 L 3.890625 -0.21875 C 3.703125 -0.132812 3.457031 -0.0625 3.15625 0 C 2.863281 0.0625 2.59375 0.09375 2.34375 0.09375 C 2.101562 0.09375 1.890625 0.0703125 1.703125 0.03125 C 1.515625 -0.0078125 1.332031 -0.0820312 1.15625 -0.1875 C 0.988281 -0.300781 0.84375 -0.441406 0.71875 -0.609375 C 0.457031 -1.003906 0.328125 -1.585938 0.328125 -2.359375 C 0.328125 -3.328125 0.523438 -3.984375 0.921875 -4.328125 C 1.117188 -4.492188 1.335938 -4.609375 1.578125 -4.671875 C 1.816406 -4.742188 2.140625 -4.78125 2.546875 -4.78125 C 2.960938 -4.78125 3.410156 -4.722656 3.890625 -4.609375 L 3.765625 -3.75 C 3.160156 -3.820312 2.691406 -3.859375 2.359375 -3.859375 C 2.023438 -3.859375 1.804688 -3.816406 1.703125 -3.734375 Z M 1.703125 -3.734375 "/></g></g></g><g fill="#ff00ff" fill-opacity="1"><g transform="translate(7.213754, 14.424992)"><g><path d="M 0.546875 0 L 0.546875 -4.6875 L 1.59375 -4.6875 L 1.5625 -0.90625 L 3.296875 -0.90625 L 3.296875 0 Z M 0.546875 0 "/></g></g></g><g fill="#ff00ff" fill-opacity="1"><g transform="translate(11.487098, 14.424992)"><g><path d="M 0.984375 0 L -0.078125 0 L 1.265625 -4.6875 L 2.515625 -4.6875 L 3.859375 0 L 2.796875 0 L 2.53125 -1.046875 L 1.25 -1.046875 Z M 2.328125 -1.921875 L 1.921875 -3.734375 L 1.875 -3.734375 L 1.453125 -1.921875 Z M 2.328125 -1.921875 "/></g></g></g><g fill="#ff00ff" fill-opacity="1"><g transform="translate(16.360449, 14.424992)"><g><path d="M 0.15625 0 L 0.15625 -0.828125 L 2.421875 -3.8125 L 2.421875 -3.859375 L 0.296875 -3.796875 L 0.296875 -4.6875 L 3.65625 -4.6875 L 3.65625 -3.890625 L 1.453125 -0.875 L 1.453125 -0.84375 L 3.6875 -0.890625 L 3.6875 0 Z M 0.15625 0 "/></g></g></g><g fill="#ff00ff" fill-opacity="1"><g transform="translate(21.273796, 14.424992)"><g><path d="M 1.59375 -2.609375 L 1.609375 0 L 0.546875 0 L 0.578125 -2.15625 L 0.546875 -4.6875 L 1.609375 -4.6875 Z M 1.59375 -2.609375 "/></g></g></g><g fill="#ff00ff" fill-opacity="1"><g transform="translate(24.487139, 14.424992)"><g><path d="M 3.109375 -0.015625 C 2.890625 0.0546875 2.628906 0.09375 2.328125 0.09375 C 2.035156 0.09375 1.773438 0.0546875 1.546875 -0.015625 C 1.328125 -0.0859375 1.125 -0.210938 0.9375 -0.390625 C 0.53125 -0.742188 0.328125 -1.398438 0.328125 -2.359375 C 0.328125 -3.429688 0.601562 -4.140625 1.15625 -4.484375 C 1.457031 -4.679688 1.847656 -4.78125 2.328125 -4.78125 C 3.085938 -4.78125 3.628906 -4.539062 3.953125 -4.0625 C 4.210938 -3.664062 4.34375 -3.097656 4.34375 -2.359375 C 4.34375 -1.398438 4.140625 -0.742188 3.734375 -0.390625 C 3.546875 -0.210938 3.335938 -0.0859375 3.109375 -0.015625 Z M 1.796875 -3.75 C 1.679688 -3.675781 1.585938 -3.53125 1.515625 -3.3125 C 1.453125 -3.09375 1.421875 -2.769531 1.421875 -2.34375 C 1.421875 -1.914062 1.453125 -1.59375 1.515625 -1.375 C 1.585938 -1.15625 1.6875 -1.007812 1.8125 -0.9375 C 1.9375 -0.863281 2.109375 -0.828125 2.328125 -0.828125 C 2.554688 -0.828125 2.734375 -0.863281 2.859375 -0.9375 C 3.117188 -1.09375 3.25 -1.5625 3.25 -2.34375 C 3.25 -3.132812 3.125 -3.601562 2.875 -3.75 C 2.75 -3.820312 2.566406 -3.859375 2.328125 -3.859375 C 2.097656 -3.859375 1.921875 -3.820312 1.796875 -3.75 Z M 1.796875 -3.75 "/></g></g></g><g fill="#ff00ff" fill-opacity="1"><g transform="translate(30.207156, 14.424992)"><g><path d="M 3.078125 -4.6875 L 4.125 -4.6875 L 4.125 -2.109375 C 4.125 -1.285156 3.976562 -0.710938 3.6875 -0.390625 C 3.394531 -0.0664062 2.945312 0.09375 2.34375 0.09375 C 1.738281 0.09375 1.285156 -0.0625 0.984375 -0.375 C 0.691406 -0.695312 0.546875 -1.257812 0.546875 -2.0625 L 0.546875 -4.6875 L 1.59375 -4.6875 L 1.59375 -2.234375 C 1.59375 -1.816406 1.613281 -1.503906 1.65625 -1.296875 C 1.707031 -1.097656 1.78125 -0.96875 1.875 -0.90625 C 1.976562 -0.851562 2.132812 -0.828125 2.34375 -0.828125 C 2.550781 -0.828125 2.703125 -0.851562 2.796875 -0.90625 C 2.890625 -0.96875 2.957031 -1.097656 3 -1.296875 C 3.050781 -1.492188 3.078125 -1.804688 3.078125 -2.234375 Z M 3.078125 -4.6875 "/></g></g></g><g fill="#00ffff" fill-opacity="1"><g transform="translate(2.612377, 14.612451)"><g><path d="M 1.703125 -3.734375 C 1.515625 -3.554688 1.421875 -3.09375 1.421875 -2.34375 C 1.421875 -1.601562 1.519531 -1.140625 1.71875 -0.953125 C 1.832031 -0.835938 2.019531 -0.78125 2.28125 -0.78125 C 2.550781 -0.78125 2.75 -0.796875 2.875 -0.828125 L 2.875 -1.828125 L 2.1875 -1.875 L 2.1875 -2.640625 L 3.890625 -2.640625 L 3.890625 -0.21875 C 3.703125 -0.132812 3.457031 -0.0625 3.15625 0 C 2.863281 0.0625 2.59375 0.09375 2.34375 0.09375 C 2.101562 0.09375 1.890625 0.0703125 1.703125 0.03125 C 1.515625 -0.0078125 1.332031 -0.0820312 1.15625 -0.1875 C 0.988281 -0.300781 0.84375 -0.441406 0.71875 -0.609375 C 0.457031 -1.003906 0.328125 -1.585938 0.328125 -2.359375 C 0.328125 -3.328125 0.523438 -3.984375 0.921875 -4.328125 C 1.117188 -4.492188 1.335938 -4.609375 1.578125 -4.671875 C 1.816406 -4.742188 2.140625 -4.78125 2.546875 -4.78125 C 2.960938 -4.78125 3.410156 -4.722656 3.890625 -4.609375 L 3.765625 -3.75 C 3.160156 -3.820312 2.691406 -3.859375 2.359375 -3.859375 C 2.023438 -3.859375 1.804688 -3.816406 1.703125 -3.734375 Z M 1.703125 -3.734375 "/></g></g></g><g fill="#00ffff" fill-opacity="1"><g transform="translate(8.025728, 14.612451)"><g><path d="M 0.546875 0 L 0.546875 -4.6875 L 1.59375 -4.6875 L 1.5625 -0.90625 L 3.296875 -0.90625 L 3.296875 0 Z M 0.546875 0 "/></g></g></g><g fill="#00ffff" fill-opacity="1"><g transform="translate(12.299071, 14.612451)"><g><path d="M 0.984375 0 L -0.078125 0 L 1.265625 -4.6875 L 2.515625 -4.6875 L 3.859375 0 L 2.796875 0 L 2.53125 -1.046875 L 1.25 -1.046875 Z M 2.328125 -1.921875 L 1.921875 -3.734375 L 1.875 -3.734375 L 1.453125 -1.921875 Z M 2.328125 -1.921875 "/></g></g></g><g fill="#00ffff" fill-opacity="1"><g transform="translate(17.172423, 14.612451)"><g><path d="M 0.15625 0 L 0.15625 -0.828125 L 2.421875 -3.8125 L 2.421875 -3.859375 L 0.296875 -3.796875 L 0.296875 -4.6875 L 3.65625 -4.6875 L 3.65625 -3.890625 L 1.453125 -0.875 L 1.453125 -0.84375 L 3.6875 -0.890625 L 3.6875 0 Z M 0.15625 0 "/></g></g></g><g fill="#00ffff" fill-opacity="1"><g transform="translate(22.085769, 14.612451)"><g><path d="M 1.59375 -2.609375 L 1.609375 0 L 0.546875 0 L 0.578125 -2.15625 L 0.546875 -4.6875 L 1.609375 -4.6875 Z M 1.59375 -2.609375 "/></g></g></g><g fill="#00ffff" fill-opacity="1"><g transform="translate(25.299112, 14.612451)"><g><path d="M 3.109375 -0.015625 C 2.890625 0.0546875 2.628906 0.09375 2.328125 0.09375 C 2.035156 0.09375 1.773438 0.0546875 1.546875 -0.015625 C 1.328125 -0.0859375 1.125 -0.210938 0.9375 -0.390625 C 0.53125 -0.742188 0.328125 -1.398438 0.328125 -2.359375 C 0.328125 -3.429688 0.601562 -4.140625 1.15625 -4.484375 C 1.457031 -4.679688 1.847656 -4.78125 2.328125 -4.78125 C 3.085938 -4.78125 3.628906 -4.539062 3.953125 -4.0625 C 4.210938 -3.664062 4.34375 -3.097656 4.34375 -2.359375 C 4.34375 -1.398438 4.140625 -0.742188 3.734375 -0.390625 C 3.546875 -0.210938 3.335938 -0.0859375 3.109375 -0.015625 Z M 1.796875 -3.75 C 1.679688 -3.675781 1.585938 -3.53125 1.515625 -3.3125 C 1.453125 -3.09375 1.421875 -2.769531 1.421875 -2.34375 C 1.421875 -1.914062 1.453125 -1.59375 1.515625 -1.375 C 1.585938 -1.15625 1.6875 -1.007812 1.8125 -0.9375 C 1.9375 -0.863281 2.109375 -0.828125 2.328125 -0.828125 C 2.554688 -0.828125 2.734375 -0.863281 2.859375 -0.9375 C 3.117188 -1.09375 3.25 -1.5625 3.25 -2.34375 C 3.25 -3.132812 3.125 -3.601562 2.875 -3.75 C 2.75 -3.820312 2.566406 -3.859375 2.328125 -3.859375 C 2.097656 -3.859375 1.921875 -3.820312 1.796875 -3.75 Z M 1.796875 -3.75 "/></g></g></g><g fill="#00ffff" fill-opacity="1"><g transform="translate(31.019129, 14.612451)"><g><path d="M 3.078125 -4.6875 L 4.125 -4.6875 L 4.125 -2.109375 C 4.125 -1.285156 3.976562 -0.710938 3.6875 -0.390625 C 3.394531 -0.0664062 2.945312 0.09375 2.34375 0.09375 C 1.738281 0.09375 1.285156 -0.0625 0.984375 -0.375 C 0.691406 -0.695312 0.546875 -1.257812 0.546875 -2.0625 L 0.546875 -4.6875 L 1.59375 -4.6875 L 1.59375 -2.234375 C 1.59375 -1.816406 1.613281 -1.503906 1.65625 -1.296875 C 1.707031 -1.097656 1.78125 -0.96875 1.875 -0.90625 C 1.976562 -0.851562 2.132812 -0.828125 2.34375 -0.828125 C 2.550781 -0.828125 2.703125 -0.851562 2.796875 -0.90625 C 2.890625 -0.96875 2.957031 -1.097656 3 -1.296875 C 3.050781 -1.492188 3.078125 -1.804688 3.078125 -2.234375 Z M 3.078125 -4.6875 "/></g></g></g><g fill="#ff1616" fill-opacity="1"><g transform="translate(2.206391, 14.518721)"><g><path d="M 1.703125 -3.734375 C 1.515625 -3.554688 1.421875 -3.09375 1.421875 -2.34375 C 1.421875 -1.601562 1.519531 -1.140625 1.71875 -0.953125 C 1.832031 -0.835938 2.019531 -0.78125 2.28125 -0.78125 C 2.550781 -0.78125 2.75 -0.796875 2.875 -0.828125 L 2.875 -1.828125 L 2.1875 -1.875 L 2.1875 -2.640625 L 3.890625 -2.640625 L 3.890625 -0.21875 C 3.703125 -0.132812 3.457031 -0.0625 3.15625 0 C 2.863281 0.0625 2.59375 0.09375 2.34375 0.09375 C 2.101562 0.09375 1.890625 0.0703125 1.703125 0.03125 C 1.515625 -0.0078125 1.332031 -0.0820312 1.15625 -0.1875 C 0.988281 -0.300781 0.84375 -0.441406 0.71875 -0.609375 C 0.457031 -1.003906 0.328125 -1.585938 0.328125 -2.359375 C 0.328125 -3.328125 0.523438 -3.984375 0.921875 -4.328125 C 1.117188 -4.492188 1.335938 -4.609375 1.578125 -4.671875 C 1.816406 -4.742188 2.140625 -4.78125 2.546875 -4.78125 C 2.960938 -4.78125 3.410156 -4.722656 3.890625 -4.609375 L 3.765625 -3.75 C 3.160156 -3.820312 2.691406 -3.859375 2.359375 -3.859375 C 2.023438 -3.859375 1.804688 -3.816406 1.703125 -3.734375 Z M 1.703125 -3.734375 "/></g></g></g><g fill="#ff1616" fill-opacity="1"><g transform="translate(7.619741, 14.518721)"><g><path d="M 0.546875 0 L 0.546875 -4.6875 L 1.59375 -4.6875 L 1.5625 -0.90625 L 3.296875 -0.90625 L 3.296875 0 Z M 0.546875 0 "/></g></g></g><g fill="#ff1616" fill-opacity="1"><g transform="translate(11.893084, 14.518721)"><g><path d="M 0.984375 0 L -0.078125 0 L 1.265625 -4.6875 L 2.515625 -4.6875 L 3.859375 0 L 2.796875 0 L 2.53125 -1.046875 L 1.25 -1.046875 Z M 2.328125 -1.921875 L 1.921875 -3.734375 L 1.875 -3.734375 L 1.453125 -1.921875 Z M 2.328125 -1.921875 "/></g></g></g><g fill="#ff1616" fill-opacity="1"><g transform="translate(16.766436, 14.518721)"><g><path d="M 0.15625 0 L 0.15625 -0.828125 L 2.421875 -3.8125 L 2.421875 -3.859375 L 0.296875 -3.796875 L 0.296875 -4.6875 L 3.65625 -4.6875 L 3.65625 -3.890625 L 1.453125 -0.875 L 1.453125 -0.84375 L 3.6875 -0.890625 L 3.6875 0 Z M 0.15625 0 "/></g></g></g><g fill="#ff1616" fill-opacity="1"><g transform="translate(21.679782, 14.518721)"><g><path d="M 1.59375 -2.609375 L 1.609375 0 L 0.546875 0 L 0.578125 -2.15625 L 0.546875 -4.6875 L 1.609375 -4.6875 Z M 1.59375 -2.609375 "/></g></g></g><g fill="#ff1616" fill-opacity="1"><g transform="translate(24.893125, 14.518721)"><g><path d="M 3.109375 -0.015625 C 2.890625 0.0546875 2.628906 0.09375 2.328125 0.09375 C 2.035156 0.09375 1.773438 0.0546875 1.546875 -0.015625 C 1.328125 -0.0859375 1.125 -0.210938 0.9375 -0.390625 C 0.53125 -0.742188 0.328125 -1.398438 0.328125 -2.359375 C 0.328125 -3.429688 0.601562 -4.140625 1.15625 -4.484375 C 1.457031 -4.679688 1.847656 -4.78125 2.328125 -4.78125 C 3.085938 -4.78125 3.628906 -4.539062 3.953125 -4.0625 C 4.210938 -3.664062 4.34375 -3.097656 4.34375 -2.359375 C 4.34375 -1.398438 4.140625 -0.742188 3.734375 -0.390625 C 3.546875 -0.210938 3.335938 -0.0859375 3.109375 -0.015625 Z M 1.796875 -3.75 C 1.679688 -3.675781 1.585938 -3.53125 1.515625 -3.3125 C 1.453125 -3.09375 1.421875 -2.769531 1.421875 -2.34375 C 1.421875 -1.914062 1.453125 -1.59375 1.515625 -1.375 C 1.585938 -1.15625 1.6875 -1.007812 1.8125 -0.9375 C 1.9375 -0.863281 2.109375 -0.828125 2.328125 -0.828125 C 2.554688 -0.828125 2.734375 -0.863281 2.859375 -0.9375 C 3.117188 -1.09375 3.25 -1.5625 3.25 -2.34375 C 3.25 -3.132812 3.125 -3.601562 2.875 -3.75 C 2.75 -3.820312 2.566406 -3.859375 2.328125 -3.859375 C 2.097656 -3.859375 1.921875 -3.820312 1.796875 -3.75 Z M 1.796875 -3.75 "/></g></g></g><g fill="#ff1616" fill-opacity="1"><g transform="translate(30.613143, 14.518721)"><g><path d="M 3.078125 -4.6875 L 4.125 -4.6875 L 4.125 -2.109375 C 4.125 -1.285156 3.976562 -0.710938 3.6875 -0.390625 C 3.394531 -0.0664062 2.945312 0.09375 2.34375 0.09375 C 1.738281 0.09375 1.285156 -0.0625 0.984375 -0.375 C 0.691406 -0.695312 0.546875 -1.257812 0.546875 -2.0625 L 0.546875 -4.6875 L 1.59375 -4.6875 L 1.59375 -2.234375 C 1.59375 -1.816406 1.613281 -1.503906 1.65625 -1.296875 C 1.707031 -1.097656 1.78125 -0.96875 1.875 -0.90625 C 1.976562 -0.851562 2.132812 -0.828125 2.34375 -0.828125 C 2.550781 -0.828125 2.703125 -0.851562 2.796875 -0.90625 C 2.890625 -0.96875 2.957031 -1.097656 3 -1.296875 C 3.050781 -1.492188 3.078125 -1.804688 3.078125 -2.234375 Z M 3.078125 -4.6875 "/></g></g></g></svg>